<svg viewBox="0 0 100 100" xmlns="http://www.w3.org/2000/svg">
  <!-- A letter in block grid style — Aygency favicon -->
  <!-- Row 6: peak -->
  <rect x="43" y="0.5" width="14" height="14" rx="2.5" ry="2.5" fill="#1B3A2D"/>
  <!-- Row 5: upper diagonals -->
  <rect x="26" y="17.5" width="14" height="14" rx="2.5" ry="2.5" fill="#1B3A2D"/>
  <rect x="60" y="17.5" width="14" height="14" rx="2.5" ry="2.5" fill="#1B3A2D"/>
  <!-- Row 4: mid diagonals -->
  <rect x="9" y="34.5" width="14" height="14" rx="2.5" ry="2.5" fill="#1B3A2D"/>
  <rect x="77" y="34.5" width="14" height="14" rx="2.5" ry="2.5" fill="#1B3A2D"/>
  <!-- Row 3: crossbar -->
  <rect x="9" y="51.5" width="14" height="14" rx="2.5" ry="2.5" fill="#1B3A2D"/>
  <rect x="26" y="51.5" width="14" height="14" rx="2.5" ry="2.5" fill="#1B3A2D"/>
  <rect x="43" y="51.5" width="14" height="14" rx="2.5" ry="2.5" fill="#1B3A2D"/>
  <rect x="60" y="51.5" width="14" height="14" rx="2.5" ry="2.5" fill="#1B3A2D"/>
  <rect x="77" y="51.5" width="14" height="14" rx="2.5" ry="2.5" fill="#1B3A2D"/>
  <!-- Row 2: legs -->
  <rect x="9" y="68.5" width="14" height="14" rx="2.5" ry="2.5" fill="#1B3A2D"/>
  <rect x="77" y="68.5" width="14" height="14" rx="2.5" ry="2.5" fill="#1B3A2D"/>
  <!-- Row 1: base -->
  <rect x="9" y="85.5" width="14" height="14" rx="2.5" ry="2.5" fill="#1B3A2D"/>
  <rect x="77" y="85.5" width="14" height="14" rx="2.5" ry="2.5" fill="#1B3A2D"/>
</svg>
